<?xml version="1.0" encoding="UTF-8"?>
<svg id="Layer_1" data-name="Layer 1" xmlns="http://www.w3.org/2000/svg" xmlns:xlink="http://www.w3.org/1999/xlink" viewBox="0 0 141.73 141.73">
  <defs>
    <style>
      .cls-1 {
        clip-path: url(#clippath);
      }

      .cls-2 {
        stroke-width: 0px;
      }

      .cls-2, .cls-3, .cls-4 {
        fill: none;
      }

      .cls-3 {
        stroke: #000;
      }

      .cls-3, .cls-4 {
        stroke-linecap: square;
        stroke-linejoin: round;
        stroke-width: 4px;
      }

      .cls-4 {
        stroke: #74c6d1;
      }
    </style>
    <clipPath id="clippath">
      <circle class="cls-2" cx="70.87" cy="70.87" r="70.87"/>
    </clipPath>
  </defs>
  <g class="cls-1">
    <g>
      <polyline class="cls-3" points="6.98 99.36 7.98 94.89 8.98 87.94 9.98 79.2 10.97 68.29 12.97 39.99 13.97 33.6 14.96 37.64 18.96 75.19 19.95 80.85 23.95 96.28 24.94 98.7 25.94 100.12 26.94 100.44 27.94 100.19 28.94 98.79 33.93 85.65 34.92 83.84 36.92 81.59 37.92 81.67 39.91 82.59 41.91 84.26 43.9 87.01 45.9 89.07 46.9 89.23 48.89 89.05 51.89 86.9 54.88 83.76 56.88 80.88 58.87 78.47 59.87 77.87 61.87 77.8 63.86 78.24 69.85 84.23 71.85 84.6 73.84 83.7 74.84 82.8 75.84 82.47 77.83 80.26 78.83 79.47 79.83 78.21 80.83 77.29 82.82 76.67 83.82 76.53 84.82 77.09 85.82 78.16 87.81 79.46 89.81 82.15 92.8 85.2 93.8 85.32 94.8 85.75 95.8 86.63 96.79 86.6 98.79 87.86 100.79 87.51 104.78 87.76 105.78 87.9 107.77 87.26 108.77 87.38 109.77 86.95 111.76 86.73 112.76 85.67 114.76 84.4 115.75 83.08 116.75 82.51 118.75 80.42 119.75 79.27 120.74 78.6 122.74 77.8 123.74 77.33 124.74 77.78 125.73 78.63 126.73 78.12 127.73 79.04 128.73 79.15 129.73 79.47 130.72 80.36 131.72 80.95 132.72 81.26 133.72 82.54 135.71 82.78 136.71 83.21 137.71 82.83 139.7 83.58 140.7 83.35 141.7 83.35 143.7 82.36 145.69 82.23 146.69 82.73 148.69 82.83 149.68 82.55 151.68 85.42 152.68 85.73"/>
      <polyline class="cls-4" points="6.98 100.34 7.98 96.76 8.98 90.66 9.98 82.55 10.97 72.29 12.97 44.36 13.97 36.72 14.96 39 16.96 56.85 18.96 73.47 19.95 78.74 21.95 86.25 23.95 92.1 24.94 94.39 25.94 96.06 26.94 96.68 27.94 96.65 28.94 96.1 29.93 94.51 31.93 90.4 35.92 84.29 37.92 83.21 38.91 83.29 40.91 84.79 41.91 85.63 42.91 86.78 45.9 91.16 46.9 91.9 47.9 92.24 48.89 92.36 49.89 92.23 50.89 91.63 53.88 88.44 55.88 85.15 57.88 81.97 59.87 79.47 60.87 78.99 62.86 78.61 63.86 79 66.86 82.47 68.85 85.01 69.85 85.93 70.85 86.47 71.85 86.64 72.84 86.46 74.84 85.41 76.84 83.51 78.83 80.87 79.83 79.38 82.82 76.34 83.82 75.89 85.82 76.7 86.82 77.1 87.81 77.81 92.8 83 94.8 84.41 99.79 87.84 100.79 87.97 101.78 88.33 103.78 89.37 106.77 90.06 110.77 88.69 111.76 87.89 115.75 83.03 120.74 76.66 122.74 75.18 123.74 74.83 126.73 75.83 127.73 76.18 130.72 78.67 132.72 80.64 133.72 81.64 135.71 82.79 140.7 84.65 145.69 84.26 146.69 84.63 147.69 84.78 148.69 84.63 149.68 84.84 151.68 86.33 152.68 86.82"/>
    </g>
  </g>
</svg>